<svg class="img-fluid" id="outputsvg" xmlns="http://www.w3.org/2000/svg" width="512" height="512" viewBox="0 0 10240 10240"><g id="l24uruTReMpPhAyIVNrYxyO" fill="rgb(89,54,183)" style="transform: none;"><g style="transform: none;"><path id="pPADMoMet" d="M 5021 9123 c -54 -19 -110 -74 -142 -139 -21 -42 -24 -63 -24 -154 0 -94 3 -112 29 -170 26 -61 29 -79 39 -267 6 -112 8 -205 6 -207 -3 -3 -61 -12 -131 -20 -177 -22 -359 -59 -523 -107 -412 -120 -846 -349 -1130 -596 -27 -23 -53 -43 -57 -43 -8 0 -122 105 -269 247 -63 61 -80 84 -99 136 -45 124 -115 208 -208 250 -58 26 -159 27 -217 2 -102 -43 -145 -106 -153 -221 -4 -62 -1 -80 21 -128 15 -32 49 -80 79 -109 43 -43 71 -60 149 -91 97 -38 97 -38 264 -206 167 -168 167 -168 80 -271 -281 -333 -509 -825 -608 -1309 -32 -158 -57 -324 -57 -384 0 -47 0 -47 -207 -44 -204 3 -209 4 -267 31 -209 99 -414 61 -483 -89 -21 -47 -25 -67 -22 -133 3 -65 9 -85 34 -127 83 -133 260 -167 444 -85 66 30 67 30 281 33 215 3 215 3 222 -82 17 -188 102 -555 184 -791 91 -264 283 -601 480 -843 87 -108 87 -108 -86 -281 -167 -167 -176 -175 -246 -200 -173 -63 -264 -171 -264 -315 0 -117 65 -203 176 -236 158 -46 305 48 387 246 24 59 46 85 207 245 179 179 179 179 232 129 390 -366 1046 -647 1649 -707 124 -12 124 -12 132 -102 4 -49 6 -144 4 -210 -3 -109 -6 -127 -37 -200 -30 -70 -34 -91 -34 -165 0 -114 22 -179 83 -240 52 -52 100 -70 185 -70 102 0 179 48 226 143 48 97 40 222 -24 357 -29 61 -30 88 -20 325 7 141 7 141 207 169 476 66 878 208 1227 433 114 74 280 195 359 262 65 55 65 55 236 -121 159 -162 174 -180 200 -245 52 -134 154 -232 265 -254 201 -42 363 141 292 329 -45 117 -107 175 -250 232 -82 32 -84 34 -245 202 -89 93 -162 175 -161 182 1 6 36 56 79 111 244 311 464 747 551 1090 32 129 76 391 89 533 7 72 7 72 222 72 216 0 216 0 305 -36 200 -80 366 -43 443 98 38 69 41 170 7 235 -83 160 -298 201 -504 97 -45 -23 -56 -24 -250 -24 -204 0 -204 0 -216 106 -45 373 -138 733 -252 973 -116 242 -255 466 -407 656 -86 108 -86 108 88 279 129 127 184 175 214 185 152 52 261 144 291 248 70 241 -186 430 -397 294 -85 -55 -124 -105 -170 -218 -33 -79 -39 -86 -199 -241 -166 -160 -166 -160 -240 -100 -494 397 -1033 622 -1672 699 -106 13 -106 13 -113 126 -11 175 -4 292 22 333 58 96 69 253 23 358 -54 124 -195 182 -329 135 z  m -92 -1580 c 18 -158 15 -153 59 -138 59 20 162 27 232 16 35 -6 66 -9 68 -6 2 2 12 55 21 117 17 113 17 113 77 110 79 -3 376 -64 495 -102 301 -94 581 -241 812 -427 45 -37 84 -68 86 -70 3 -2 -122 -131 -277 -286 -281 -283 -281 -283 -267 -342 8 -33 29 -124 46 -202 33 -141 33 -141 95 -85 126 116 472 440 570 535 101 97 101 97 169 10 128 -162 203 -285 289 -471 47 -101 96 -218 110 -260 37 -118 104 -438 111 -527 3 -44 8 -90 11 -102 4 -23 4 -23 -233 -24 -352 -1 -922 -14 -929 -22 -7 -7 52 -326 62 -336 3 -3 251 -8 551 -9 546 -4 546 -4 540 -100 -14 -226 -96 -543 -187 -723 -105 -207 -278 -486 -372 -602 -23 -27 -23 -27 -333 283 -357 358 -300 341 -443 130 -80 -119 -80 -119 203 -408 283 -288 283 -288 179 -378 -289 -247 -591 -384 -1074 -484 -529 -109 -970 -67 -1455 140 -270 115 -430 214 -614 381 -69 63 -69 63 195 332 265 268 265 268 217 325 -207 246 -157 253 -468 -58 -280 -279 -280 -279 -372 -157 -118 157 -168 237 -235 372 -109 218 -157 345 -198 522 -30 130 -70 363 -70 409 0 2 87 4 193 4 245 1 777 16 783 23 12 11 90 338 82 343 -4 3 -247 8 -538 11 -530 6 -530 6 -525 37 2 17 12 83 20 146 35 262 119 526 265 825 80 165 124 237 238 388 66 87 66 87 142 14 94 -91 554 -530 597 -571 18 -16 35 -27 38 -24 5 5 110 293 129 353 5 17 -22 46 -146 160 -157 145 -410 413 -403 426 9 13 270 195 364 253 164 101 308 166 521 237 218 72 390 110 526 117 31 2 31 2 43 -105 z "></path><path id="pQFgGSS42" d="M 5095 7221 c -36 -17 -621 -533 -806 -712 -76 -73 -77 -75 -108 -174 -35 -115 -115 -405 -306 -1115 -75 -278 -147 -545 -161 -595 -13 -49 -24 -111 -24 -136 0 -62 -37 -13 585 -784 541 -671 710 -877 732 -895 68 -53 153 -50 213 8 40 38 1131 1491 1183 1574 24 38 28 55 25 90 -6 54 -385 1962 -398 2003 -6 17 -36 56 -68 87 -101 99 -736 650 -760 659 -34 13 -62 11 -107 -10 z "></path></g></g><g id="l7DmPDGH90CMhSdqwD7q0Yi" fill="rgb(59,27,130)" style="transform: none;"><g style="transform: none;"><path id="p15xSfr0pz" d="M 5095 7221 c -36 -17 -621 -533 -806 -712 -76 -73 -77 -75 -108 -174 -35 -115 -115 -405 -306 -1115 -75 -278 -147 -545 -161 -595 -13 -49 -24 -111 -24 -136 0 -62 -37 -13 585 -784 541 -671 710 -877 732 -895 68 -53 153 -50 213 8 40 38 1131 1491 1183 1574 24 38 28 55 25 90 -6 54 -385 1962 -398 2003 -6 17 -36 56 -68 87 -101 99 -736 650 -760 659 -34 13 -62 11 -107 -10 z  m 195 -398 c 27 -21 49 -44 49 -50 1 -7 9 -13 18 -13 21 0 182 -121 183 -137 0 -7 7 -13 16 -13 22 0 173 -111 174 -127 0 -7 7 -13 16 -13 9 0 36 -14 60 -32 32 -23 44 -38 41 -50 -3 -10 -1 -18 5 -18 6 0 8 -11 6 -25 -3 -14 -1 -25 5 -25 5 0 7 -11 5 -25 -3 -14 -1 -25 5 -25 5 0 7 -11 5 -25 -3 -14 -1 -25 5 -25 5 0 7 -11 5 -25 -3 -14 -2 -25 2 -25 11 0 33 -136 25 -150 -3 -5 -2 -10 3 -10 12 0 46 -176 38 -196 -3 -8 -2 -14 2 -14 11 0 46 -186 39 -204 -3 -8 -2 -16 2 -18 11 -4 74 -346 67 -364 -3 -8 -2 -14 2 -14 11 0 56 -236 49 -254 -3 -8 -2 -16 3 -18 11 -4 91 -431 82 -439 -4 -3 -64 -29 -133 -57 -69 -28 -138 -56 -155 -63 -16 -7 -78 -29 -139 -49 -82 -28 -113 -35 -122 -26 -6 6 -76 121 -155 256 -80 135 -333 564 -563 953 -418 708 -418 708 -379 740 21 17 91 82 154 143 63 61 173 164 245 230 71 65 159 147 195 181 36 35 71 63 78 63 7 0 35 -17 62 -37 z "></path></g></g><g id="l7gdVfc3FvBNSOF3lQWjES3" fill="rgb(106,71,198)" style="transform: none;"><g style="transform: none;"><path id="poVvRFEGF" d="M 4405 6118 c -3 -7 -14 -177 -25 -378 -11 -201 -32 -565 -46 -809 -24 -417 -25 -447 -9 -479 15 -33 641 -1138 752 -1329 30 -51 58 -93 63 -93 16 0 37 51 159 396 66 187 154 433 195 548 74 205 75 210 59 240 -9 17 -123 211 -253 431 -332 560 -789 1337 -834 1418 -37 66 -52 79 -61 55 z "></path></g></g></svg>